<svg xmlns="http://www.w3.org/2000/svg" viewBox="0 0 32 32"><defs><style>.cls-1{fill:#fff;}</style></defs><title>mic</title><g id="Layer_2" data-name="Layer 2"><g id="Layer_1-2" data-name="Layer 1"><path class="cls-1" d="M29,1.66A7.84,7.84,0,0,0,16.43,6.39a.29.29,0,0,0,.08.26l8.87,8.9a.29.29,0,0,0,.25.09,7.78,7.78,0,0,0,4.07-2.17A7.91,7.91,0,0,0,29,1.66Z"/><path class="cls-1" d="M.33,31.67a1.12,1.12,0,0,0,1.59,0l5.46-5.48,1.33,1.33a.54.54,0,0,0,.74.05L22.78,17a.57.57,0,0,0,0-.85l-7.06-7.1a.56.56,0,0,0-.84.06L4.54,22.63a.58.58,0,0,0,0,.75l1.21,1.21L.33,30.07A1.13,1.13,0,0,0,.33,31.67ZM13.14,16a2,2,0,1,1,0,2.82A2,2,0,0,1,13.14,16Z"/></g></g></svg>