<svg xmlns="http://www.w3.org/2000/svg" viewBox="0 0 512 512"><defs><style>.cls-1{fill:#fff;}</style></defs><title>note</title><g id="Layer_2" data-name="Layer 2"><g id="Layer_1-2" data-name="Layer 1"><path class="cls-1" d="M503.32,5.94a24.75,24.75,0,0,0-20-5.64L169.55,49.85a24.76,24.76,0,0,0-20.9,24.47v256H99.1C44.46,330.32,0,371.07,0,421.16S44.46,512,99.1,512s99.09-40.75,99.09-90.84V194.59l264.26-41.73V289H412.9c-54.64,0-99.09,40.75-99.09,90.84s44.45,90.84,99.09,90.84S512,430,512,379.87V24.77A24.77,24.77,0,0,0,503.32,5.94Z"/></g></g></svg>