<svg xmlns="http://www.w3.org/2000/svg" viewBox="0 0 61.93 56"><defs><style>.cls-1{fill:#fff;}</style></defs><title>Asset 1</title><g id="Layer_2" data-name="Layer 2"><g id="Layer_1-2" data-name="Layer 1"><path class="cls-1" d="M12.14,26a13.4,13.4,0,0,0-.1,2H6a13.4,13.4,0,0,1,.1-2Z"/><path class="cls-1" d="M35.54,14h-3A1.54,1.54,0,0,0,31,15.5V28.6a2.1,2.1,0,0,0,.4,1.1l8.4,8.4a1.45,1.45,0,0,0,2.1,0L44,36a1.45,1.45,0,0,0,0-2.1l-7-7.1V15.5A1.54,1.54,0,0,0,35.54,14Z"/><path class="cls-1" d="M34,0A28,28,0,0,0,6.14,26c0,.3-.1.7-.1,1H1.54a1.48,1.48,0,0,0-1.2,2.4l7.5,9.1a1.52,1.52,0,0,0,2.3,0l7.5-9.1a1.47,1.47,0,0,0-1.2-2.4H12V26a22,22,0,1,1,43.8,4.5c-1,9.5-10,18.5-19.6,19.4a22,22,0,0,1-18.5-7c-.6-.7-1.4-1.1-2.2-.1l-2.4,2.9c-.5.6-.1,1,.4,1.5A28,28,0,1,0,34,0Z"/></g></g></svg>